<svg width="128" height="150" viewBox="0 0 128 150" fill="none" xmlns="http://www.w3.org/2000/svg">
<linearGradient id="a" x1="0" y1="76.0599" x2="128" y2="76.0599" gradientUnits="userSpaceOnUse">
<stop offset="0" stop-color="#ff5500"/>
<stop offset="0.40988" stop-color="#ff5500"/>
<stop offset="0.58198" stop-color="#ff2000"/>
<stop offset="1" stop-color="#ff2000"/>
</linearGradient>
<path fill="url(#a)" d="M123.52 35.9837L127.04 27.3484C127.04 27.3484 122.56 22.5514 117.12 17.1143C111.68 11.6773 100.16 14.8761 100.16 14.8761L87.04 0H40.96L27.84 14.8761C27.84 14.8761 16.32 11.6779 10.88 17.1149C5.44 22.552 0.96 27.349 0.96 27.349L4.48 35.9837L0 48.776C0 48.776 13.1765 98.6523 14.72 104.743C17.76 116.736 19.84 121.373 28.48 127.45C37.12 133.526 52.8 144.08 55.36 145.679C57.92 147.278 61.12 150.002 64 150.002C66.88 150.002 70.08 147.277 72.64 145.679C75.2 144.08 90.88 133.526 99.52 127.45C108.16 121.373 110.24 116.736 113.28 104.743C114.824 98.6523 128 48.776 128 48.776L123.52 35.9837Z"/>
<path fill="#ffffff" d="M96.4798 24.3108C96.4798 24.3108 113.355 44.6985 113.355 49.0564C113.355 53.4136 111.233 54.5639 109.098 56.8291L96.4451 70.2573C95.2475 71.5279 92.7551 73.4544 94.2216 76.9215C95.6881 80.3886 97.8498 84.8005 95.4451 89.2752C93.0398 93.7493 88.9198 96.7367 86.2804 96.2429C83.6398 95.7486 77.4398 92.5104 75.1598 91.0314C72.8798 89.5517 65.6539 83.5963 65.6539 81.3169C65.6539 79.0388 73.1233 74.9463 74.5033 74.0174C75.8833 73.0886 82.1781 69.4893 82.3069 68.0772C82.4357 66.6651 82.3869 66.2506 80.5292 62.7605C78.6716 59.2705 75.3263 54.6138 75.8834 51.5148C76.4398 48.4164 81.8351 46.8058 85.6851 45.352C89.5351 43.8994 96.9475 41.1551 97.8733 40.7282C98.7998 40.3013 98.5604 39.8944 95.7551 39.629C92.9504 39.3637 84.9904 38.3074 81.401 39.3073C77.8128 40.3066 71.681 41.8279 71.1845 42.6347C70.6881 43.4414 70.2498 43.4684 70.7598 46.2504C71.2698 49.0323 73.8951 62.3836 74.1504 64.7551C74.4051 67.1266 74.9033 68.6943 72.3457 69.2791C69.7869 69.8633 65.4798 70.8785 63.9998 70.8785C62.5198 70.8785 58.2128 69.8633 55.6545 69.2791C53.0963 68.6949 53.5939 67.1266 53.8486 64.7551C54.1034 62.3836 56.7298 49.0329 57.2398 46.2504C57.7498 43.4679 57.3116 43.4408 56.8151 42.6347C56.3186 41.8285 50.1869 40.3066 46.5981 39.3073C43.0098 38.3074 35.0492 39.3637 32.2445 39.629C29.4398 39.8944 29.1998 40.3013 30.1257 40.7282C31.0516 41.1551 38.4651 43.8988 42.3139 45.352C46.1645 46.8052 51.5598 48.417 52.1169 51.5148C52.6734 54.6138 49.3281 59.2711 47.4704 62.7605C45.6128 66.2506 45.5639 66.6651 45.6928 68.0772C45.8216 69.4893 52.1163 73.088 53.4963 74.0174C54.8763 74.9469 62.3457 79.0388 62.3457 81.3169C62.3457 83.5963 55.1198 89.5523 52.8398 91.0314C50.5598 92.5104 44.3598 95.7486 41.7198 96.2429C39.0798 96.7362 34.9598 93.7499 32.5551 89.2752C30.1498 84.8005 32.3128 80.3886 33.7786 76.9215C35.2445 73.4544 32.7522 71.5279 31.5551 70.2573L18.9016 56.8291C16.7669 54.5639 14.6445 53.4136 14.6445 49.0564C14.6445 44.6985 31.5198 24.3108 31.5198 24.3108C31.5198 24.3108 45.7598 27.0293 47.6798 27.0293C49.5998 27.0293 53.7598 25.4299 57.5998 24.1511C61.4398 22.8723 63.9998 22.8623 63.9998 22.8623C63.9998 22.8623 66.5598 22.8717 70.3998 24.1511C74.2398 25.4305 78.3998 27.0293 80.3198 27.0293C82.2398 27.0293 96.4798 24.3108 96.4798 24.3108ZM83.8292 102.299C84.8733 102.952 84.2363 104.185 83.2851 104.857C82.3334 105.529 69.5457 115.426 68.3045 116.519C67.0634 117.614 65.2398 119.42 63.9998 119.42C62.7598 119.42 60.9357 117.614 59.6951 116.519C58.4539 115.425 45.6663 105.529 44.7145 104.857C43.7628 104.185 43.1263 102.952 44.1704 102.299C45.2157 101.645 48.4839 99.996 52.9939 97.6639C57.5028 95.3317 63.1228 93.3489 63.9998 93.3489C64.8769 93.3489 70.4969 95.3317 75.0063 97.6639C79.5157 99.996 82.7839 101.645 83.8292 102.299Z"/>
</svg>
