<svg width="150" height="150" viewBox="0 0 150 150" xmlns="http://www.w3.org/2000/svg">
<path fill="#de5833" d="M75 150C116.421 150 150 116.421 150 75C150 33.5789 116.421 0 75 0C33.5789 0 0 33.5789 0 75C0 116.421 33.5789 150 75 150Z"/>
<path fill="#dddddd" d="M85.5469 130.957C85.5469 130.371 85.691 130.238 83.8289 126.525C78.8789 116.612 73.9031 102.638 76.1648 93.6246C76.5785 91.9875 71.5031 32.9871 67.9148 31.0875C63.9281 28.9629 59.0227 25.5914 54.5344 24.8414C52.2574 24.4781 49.2727 24.6492 46.9383 24.9645C46.5246 25.0195 46.507 25.7648 46.9031 25.8996C48.4359 26.4188 50.2957 27.3199 51.3914 28.6828C51.6 28.9406 51.3211 29.3461 50.9906 29.359C49.957 29.3965 48.082 29.8301 45.6082 31.9313C45.3223 32.1738 45.5602 32.625 45.9281 32.5523C51.2438 31.5012 56.6742 32.0191 59.8734 34.9277C60.0809 35.1152 59.9719 35.4551 59.7012 35.5277C31.9348 43.0746 37.432 67.227 44.8231 96.8684C51.4078 123.271 53.8852 131.781 54.6668 134.373C54.7025 134.496 54.7657 134.609 54.8516 134.704C54.9375 134.799 55.0438 134.873 55.1625 134.92C64.7203 138.727 85.5469 138.895 85.5469 132.422V130.957Z"/>
<path fill="#ffffff" d="M143.848 75C143.848 113.024 113.024 143.848 75 143.848C36.9762 143.848 6.15234 113.024 6.15234 75C6.15234 36.9762 36.9762 6.15234 75 6.15234C113.024 6.15234 143.848 36.9762 143.848 75ZM58.9336 135.921C57.0305 130.043 51.7137 113.01 46.4613 91.4836L45.9375 89.3414L45.934 89.3227C39.5766 63.3598 34.3852 42.1523 62.8406 35.4902C63.1008 35.4293 63.2273 35.1187 63.0551 34.9137C59.7902 31.0406 53.6742 29.7715 45.941 32.4398C45.6246 32.5488 45.348 32.2289 45.5449 31.957C47.0613 29.8676 50.025 28.2598 51.4887 27.5555C51.791 27.4102 51.7723 26.9672 51.4523 26.8664C50.0054 26.4132 48.5288 26.0608 47.0332 25.8117C46.5996 25.7426 46.5598 24.9996 46.9957 24.941C57.9598 23.4656 69.4078 26.7574 75.1535 33.9949C75.2086 34.0627 75.285 34.1097 75.3703 34.1285C96.409 38.6461 97.916 71.9039 95.4914 73.4191C95.0145 73.718 93.4828 73.5457 91.4625 73.3195C83.2769 72.4043 67.0664 70.5902 80.4457 95.5242C80.5781 95.7703 80.4023 96.0961 80.127 96.1395C72.6082 97.3078 82.1836 120.789 89.2816 136.362C117.19 129.893 137.988 104.876 137.988 75C137.988 40.2129 109.787 12.0117 75 12.0117C40.2129 12.0117 12.0117 40.2129 12.0117 75C12.0117 104.235 31.9277 128.817 58.9336 135.921Z"/>
<path fill="#3ca82b" d="M98.7656 106.287C97.1637 105.545 91.0066 109.961 86.918 113.351C86.0648 112.143 84.4535 111.265 80.8207 111.895C77.6414 112.448 75.8859 113.215 75.102 114.537C70.0828 112.635 61.6395 109.697 59.5992 112.533C57.3703 115.634 60.157 130.3 63.1184 132.204C64.6652 133.199 72.0598 128.445 75.9223 125.167C76.5457 126.045 77.5488 126.547 79.6113 126.499C82.7309 126.427 87.7898 125.701 88.575 124.248C88.6219 124.16 88.6629 124.056 88.6981 123.936C92.6684 125.42 99.6551 126.99 101.216 126.756C105.282 126.145 100.648 107.159 98.7656 106.287Z"/>
<path fill="#4cba3c" d="M87.293 113.786C87.4617 114.086 87.5977 114.402 87.7125 114.723C88.2785 116.307 89.2008 121.342 88.5023 122.585C87.8051 123.83 83.277 124.43 80.4832 124.478C77.6895 124.526 77.0613 123.504 76.4953 121.922C76.0418 120.655 75.8191 117.679 75.825 115.975C75.7102 113.446 76.6336 112.557 80.9039 111.866C84.0633 111.355 85.7332 111.949 86.6977 112.968C91.1836 109.62 98.6684 104.895 99.3984 105.758C103.038 110.064 103.499 120.313 102.71 124.437C102.452 125.786 90.3996 123.102 90.3996 121.648C90.3996 115.61 88.8328 113.954 87.2941 113.784M60.8906 111.9C61.8785 110.338 69.8836 112.281 74.2781 114.236C74.2781 114.236 73.3758 118.327 74.8125 123.146C75.2332 124.556 64.7027 130.832 63.3281 129.752C61.7402 128.504 58.8164 115.184 60.8906 111.9Z"/>
<path fill="#ffcc33" d="M64.7684 80.1644C65.4164 77.3473 68.4328 72.0398 79.207 72.1687C84.6539 72.1465 91.4203 72.1664 95.9063 71.6578C102.573 70.8996 107.522 69.2871 110.82 68.0309C115.484 66.2508 117.138 66.648 117.718 67.7121C118.356 68.8828 117.605 70.9019 115.975 72.7617C112.862 76.3125 107.266 79.0664 97.3828 79.882C87.5004 80.7 80.9531 78.048 78.1348 82.364C76.9184 84.2262 77.8582 88.6137 87.416 89.9953C100.33 91.8586 110.938 87.7488 112.248 90.2308C113.558 92.7129 106.01 97.7637 93.0738 97.8691C80.1375 97.9746 72.0574 93.3398 69.1922 91.0371C65.557 88.1133 63.9305 83.8512 64.7684 80.1644Z"/>
<path fill="#14307ecc" d="M88.4062 65.5312C87.3286 65.5325 86.2945 65.1059 85.5311 64.3452C84.7678 63.5845 84.3376 62.5519 84.3352 61.4742C84.3383 60.3968 84.7689 59.3646 85.5324 58.6043C86.2959 57.8441 87.33 57.418 88.4074 57.4195C89.4847 57.4183 90.5184 57.8445 91.2817 58.6047C92.045 59.3649 92.4754 60.397 92.4785 61.4742C92.476 62.5521 92.0457 63.5849 91.2821 64.3456C90.5185 65.1064 89.4841 65.5328 88.4062 65.5312ZM91.2738 60.1312C91.2738 59.8517 91.1628 59.5836 90.9651 59.3859C90.7674 59.1882 90.4993 59.0771 90.2197 59.0771C89.9402 59.0771 89.672 59.1882 89.4744 59.3859C89.2767 59.5836 89.1656 59.8517 89.1656 60.1312C89.1656 60.7102 89.6402 61.1801 90.2203 61.1801C90.8051 61.1801 91.2738 60.7113 91.2738 60.1312ZM61.4332 64.282C61.4327 64.9043 61.3096 65.5205 61.0708 66.0952C60.832 66.6698 60.4823 67.1918 60.0416 67.6312C59.6009 68.0706 59.0779 68.4188 58.5025 68.6559C57.9271 68.893 57.3106 69.0143 56.6883 69.0129C55.4317 69.0144 54.2259 68.517 53.3359 67.6299C52.446 66.7428 51.9447 65.5386 51.9422 64.282C51.9447 63.0254 52.446 61.8213 53.3359 60.9342C54.2259 60.0471 55.4317 59.5496 56.6883 59.5512C57.9449 59.5496 59.1506 60.0471 60.0406 60.9342C60.9306 61.8213 61.4307 63.0254 61.4332 64.282ZM60.0363 62.7141C60.0195 62.3995 59.8827 62.1035 59.6541 61.8868C59.4255 61.6701 59.1226 61.5493 58.8076 61.5493C58.4927 61.5493 58.1897 61.6701 57.9611 61.8868C57.7325 62.1035 57.5957 62.3995 57.5789 62.7141C57.5789 63.3879 58.1285 63.9375 58.807 63.9375C59.4855 63.9375 60.0363 63.3867 60.0363 62.7141Z"/>
<path fill="#14307ecc" d="M81.2426 49.3676C81.9645 48.1863 83.5641 47.2746 86.1832 47.2746C88.8012 47.2746 90.0328 48.3164 90.8859 49.4777C91.0594 49.7144 90.7969 49.9933 90.5273 49.8762L90.3305 49.7906C89.373 49.3723 88.1976 48.859 86.182 48.8297C84.0281 48.7992 82.6699 49.3394 81.8145 49.8035C81.5262 49.9605 81.0715 49.6476 81.2426 49.3676ZM51.7617 50.8793C54.3047 49.8164 56.3039 49.9535 57.716 50.2887C58.0137 50.359 58.2199 50.039 57.982 49.8469C56.8863 48.9621 54.4312 47.8641 51.232 49.057C48.3762 50.1223 47.0309 52.3336 47.0226 53.7891C47.0203 54.1312 47.7258 54.1605 47.9086 53.8711C48.4008 53.0859 49.2211 51.9422 51.7629 50.8793"/>
</svg>
