<svg xmlns="http://www.w3.org/2000/svg" viewBox="0 0 272 278">
  <radialGradient id="a" cx="304" cy="118" r="47.9" gradientTransform="matrix(2.06 0 0 2.59 -297.7 -151.7)" gradientUnits="userSpaceOnUse">
    <stop offset=".41" stop-color="#fb4e5a"/>
    <stop offset="1" stop-color="#ff4540"/>
  </radialGradient>
  <radialGradient id="b" cx="109.6" cy="135.9" r="71.5" gradientTransform="matrix(-1.94 1.04 1.46 2.56 290.5 -400.6)" gradientUnits="userSpaceOnUse">
    <stop offset=".23" stop-color="#ff4541"/>
    <stop offset=".31" stop-color="#ff4540"/>
    <stop offset=".54" stop-color="#ff473f"/>
    <stop offset=".7" stop-color="#ff5138"/>
    <stop offset=".77" stop-color="#ff5b33"/>
    <stop offset="1" stop-color="#ff8c18"/>
  </radialGradient>
  <radialGradient id="c" cx="181" cy="177.2" r="71.5" gradientTransform="matrix(-.25 2.08 2.96 .33 -255.1 -331.2)" gradientUnits="userSpaceOnUse">
    <stop offset=".37" stop-color="#ff4e3a"/>
    <stop offset=".46" stop-color="#ff8a1b"/>
    <stop offset=".54" stop-color="#ffa312"/>
    <stop offset=".77" stop-color="#ffcd0a"/>
    <stop offset="1" stop-color="#fdcd01"/>
  </radialGradient>
  <radialGradient id="d" cx="207.7" cy="108.1" r="41.1" gradientTransform="matrix(-1.25 1.34 -3.9 -3.43 880.5 194.9)" gradientUnits="userSpaceOnUse">
    <stop offset=".32" stop-color="#ff4c3c"/>
    <stop offset=".6" stop-color="#ff692c"/>
    <stop offset=".73" stop-color="#ff7825"/>
    <stop offset="1" stop-color="#ff9f13"/>
  </radialGradient>
  <radialGradient id="e" cx="154.9" cy="146" r="71.5" gradientTransform="matrix(-.08 -1.94 2.93 -.12 -215.1 632.9)" gradientUnits="userSpaceOnUse">
    <stop offset=".14" stop-color="#1abd4d"/>
    <stop offset=".25" stop-color="#6ec30d"/>
    <stop offset=".31" stop-color="#8ac502"/>
    <stop offset=".45" stop-color="#c8c903"/>
    <stop offset=".54" stop-color="#ebcb03"/>
    <stop offset=".7" stop-color="#fdcd04"/>
    <stop offset=".86" stop-color="#ffce0a"/>
  </radialGradient>
  <radialGradient id="f" cx="109.6" cy="135.9" r="71.5" gradientTransform="matrix(-1.94 -1.04 1.46 -2.56 290.5 838.7)" gradientUnits="userSpaceOnUse">
    <stop offset=".23" stop-color="#0fbc5f"/>
    <stop offset=".54" stop-color="#12bc58"/>
    <stop offset=".7" stop-color="#28bf3c"/>
    <stop offset=".77" stop-color="#38c02b"/>
    <stop offset="1" stop-color="#86c504"/>
  </radialGradient>
  <radialGradient id="g" cx="45.3" cy="279.3" r="71.5" gradientTransform="matrix(-3.51 -4.46 -1.69 1.26 870.8 191.6)" gradientUnits="userSpaceOnUse">
    <stop offset=".13" stop-color="#0cba65"/>
    <stop offset=".21" stop-color="#0bb86d"/>
    <stop offset=".4" stop-color="#08ad93"/>
    <stop offset=".48" stop-color="#0aa6a9"/>
    <stop offset=".67" stop-color="#1893dd"/>
    <stop offset=".86" stop-color="#3086ff"/>
  </radialGradient>
  <clipPath id="h">
    <path d="M371.4 193.2H237.1v53.4h77.2c-1.2 7.6-4 15-8.1 21.8-4.7 7.8-10.5 13.7-16.4 18.2-17.7 13.5-38.4 16.3-52.8 16.3-36.3 0-67.3-23.3-79.3-54.9-.5-1.1-.8-2.3-1.2-3.5a81 81 0 0 1-4.1-25.4c0-9.2 1.6-18.1 4.4-26.4 11.3-32.9 43-57.5 80.2-57.5 7.5 0 14.7.9 21.5 2.6a77.7 77.7 0 0 1 33.4 18.3l40.8-39.7c-24.8-22.6-57.2-36.3-95.8-36.3-30.9 0-59.4 9.6-82.7 25.7-19 13.1-34.5 30.6-45 51-9.8 18.9-15.1 39.8-15.1 62.3 0 22.5 5.4 43.6 15.1 62.3v.1c10.3 19.9 25.4 37 43.7 50 16 11.4 44.7 26.6 84 26.6 22.6 0 42.7-4.1 60.4-11.6 12.8-5.5 24.1-12.6 34.3-21.8 13.5-12.1 24.1-27.1 31.3-44.4s11.1-36.8 11.1-58c0-9.9-1-19.9-2.7-29Z"/>
  </clipPath>
  <g clip-path="url(#h)" transform="translate(-90 -79) scale(.96 .99)">
    <path fill="url(#a)" d="M237 79c-6.5 22.5-4 44.4 0 57.2 7.5 0 14.6.9 21.4 2.6a77.7 77.7 0 0 1 33.4 18.3l41.9-40.7C309 94 279.2 79.3 237 79"/>
    <path fill="url(#b)" d="M237 79c-31.7 0-60.9 9.8-84.9 26.4a145 145 0 0 0-24.3 21.1c-1.9 17.7 14.3 39.6 46.3 39.4 15.5-17.9 38.5-29.5 64-29.5h.1L237 79"/>
    <path fill="url(#c)" d="M128.4 124.3c-8.4 9.1-15.6 19.3-21.2 30.4-9.8 18.9-15.1 41.8-15.1 64.3 0 .3 0 .6 0 .9 4.3 8.2 59.7 6.6 62.5 0 0-.3 0-.6 0-.9 0-9.2 1.6-16 4.4-24.4 3.5-10.3 9.1-19.8 16.1-27.9 1.6-2 5.9-6.4 7.1-9 .5-1-.9-1.6-.9-1.9-.1-.4-1.9-.1-2.3-.4-1.3-.9-3.8-1.4-5.3-1.8-3.3-.9-8.7-3-11.7-5.1-9.5-6.7-24.4-14.6-33.5-24.2"/>
    <path fill="url(#d)" d="M162 156c22.1 13.3 28.5-6.7 43.2-13L180 90.2a145 145 0 0 0-26.5 14.5c-12.3 8.5-23.2 18.9-32.2 30.7z"/>
    <path fill="url(#e)" d="M92 220c.1 22.1 6.5 45 16.1 63.4v.1c7 13.4 16.4 24 27.3 34.5l65.3-23.7c-12.4-6.2-14.2-10-23.1-17-9-9.1-15.8-19.5-20-31.7h-.2l.2-.1c-2.8-8.1-3-16.6-3.1-25.5z"/>
    <path fill="url(#f)" d="M171 290.2c-29.7 10.6-34.3 11-37 29.3a145 145 0 0 0 16.8 14c16 11.4 46.8 26.6 86.1 26.6h.1v-59.2h-.1c-14.7 0-26.5-3.8-38.6-10.5-3-1.6-8.4 2.8-11.1.8-3.8-2.7-12.9 2.4-16.2-.9"/>
    <path fill="url(#g)" d="m341.5 226.4-28.3 19.3c-1.2 7.6-4 15-8.1 21.8-4.7 7.8-10.5 13.7-16.4 18.2-17.7 13.5-38.3 16.2-52.7 16.3-14.8 25.1-17.4 37.7 1 57.9 22.9 0 43.2-4.1 61-11.8 12.9-5.6 24.4-12.8 34.8-22.1 13.7-12.3 24.4-27.5 31.8-45 7.3-17.5 11.2-37.3 11.2-58.7z"/>
    <path fill="#3086ff" d="M235 191.2v57.5h136c1.2-7.9 5.2-18.1 5.2-26.5 0-9.9-1-21.9-2.7-31z"/>
  </g>
</svg>
